<svg width="180" height="180" viewBox="0 0 180 180" fill="none" xmlns="http://www.w3.org/2000/svg">
  <rect width="180" height="180" rx="32" fill="url(#gradient)"/>
  
  <!-- Neural Network Pattern - Scaled and Enhanced -->
  <!-- Input Layer -->
  <circle cx="45" cy="55" r="8" fill="#ffffff" opacity="0.95"/>
  <circle cx="45" cy="90" r="8" fill="#ffffff" opacity="0.95"/>
  <circle cx="45" cy="125" r="8" fill="#ffffff" opacity="0.95"/>
  
  <!-- Hidden Layer -->
  <circle cx="90" cy="40" r="10" fill="#ffffff"/>
  <circle cx="90" cy="75" r="12" fill="#ffffff"/>
  <circle cx="90" cy="105" r="12" fill="#ffffff"/>
  <circle cx="90" cy="140" r="10" fill="#ffffff"/>
  
  <!-- Output Layer -->
  <circle cx="135" cy="70" r="9" fill="#ffffff" opacity="0.95"/>
  <circle cx="135" cy="110" r="9" fill="#ffffff" opacity="0.95"/>
  
  <!-- Main Connections -->
  <line x1="53" y1="55" x2="82" y2="40" stroke="#ffffff" stroke-width="3" opacity="0.8"/>
  <line x1="53" y1="55" x2="82" y2="75" stroke="#ffffff" stroke-width="4" opacity="0.9"/>
  <line x1="53" y1="55" x2="82" y2="105" stroke="#ffffff" stroke-width="2" opacity="0.6"/>
  
  <line x1="53" y1="90" x2="82" y2="75" stroke="#ffffff" stroke-width="5" opacity="1"/>
  <line x1="53" y1="90" x2="82" y2="105" stroke="#ffffff" stroke-width="5" opacity="1"/>
  <line x1="53" y1="90" x2="82" y2="140" stroke="#ffffff" stroke-width="3" opacity="0.7"/>
  
  <line x1="53" y1="125" x2="82" y2="105" stroke="#ffffff" stroke-width="4" opacity="0.8"/>
  <line x1="53" y1="125" x2="82" y2="140" stroke="#ffffff" stroke-width="3" opacity="0.8"/>
  
  <!-- Output connections -->
  <line x1="98" y1="40" x2="127" y2="70" stroke="#ffffff" stroke-width="2" opacity="0.7"/>
  <line x1="98" y1="75" x2="127" y2="70" stroke="#ffffff" stroke-width="4" opacity="0.9"/>
  <line x1="98" y1="105" x2="127" y2="110" stroke="#ffffff" stroke-width="4" opacity="0.9"/>
  <line x1="98" y1="140" x2="127" y2="110" stroke="#ffffff" stroke-width="2" opacity="0.7"/>
  
  <!-- Cross connections for complexity -->
  <line x1="53" y1="55" x2="82" y2="140" stroke="#ffffff" stroke-width="1.5" opacity="0.4"/>
  <line x1="53" y1="125" x2="82" y2="40" stroke="#ffffff" stroke-width="1.5" opacity="0.4"/>
  <line x1="98" y1="75" x2="127" y2="110" stroke="#ffffff" stroke-width="2" opacity="0.6"/>
  <line x1="98" y1="105" x2="127" y2="70" stroke="#ffffff" stroke-width="2" opacity="0.6"/>
  
  <!-- Subtle glow effects -->
  <circle cx="90" cy="75" r="12" fill="none" stroke="#ffffff" stroke-width="1" opacity="0.3"/>
  <circle cx="90" cy="105" r="12" fill="none" stroke="#ffffff" stroke-width="1" opacity="0.3"/>
  
  <!-- Gradient Definition -->
  <defs>
    <linearGradient id="gradient" x1="0%" y1="0%" x2="100%" y2="100%">
      <stop offset="0%" style="stop-color:#1D4ED8;stop-opacity:1" />
      <stop offset="33%" style="stop-color:#7C3AED;stop-opacity:1" />
      <stop offset="66%" style="stop-color:#06B6D4;stop-opacity:1" />
      <stop offset="100%" style="stop-color:#1D4ED8;stop-opacity:1" />
    </linearGradient>
  </defs>
</svg>