data:image/svg+xml,<svg xmlns="http://www.w3.org/2000/svg" width="32" height="32" viewBox="0 0 32 32"><rect width="32" height="32" rx="6" fill="%231D4ED8"/><rect width="32" height="32" rx="6" fill="url(%23gradient)"/><circle cx="8" cy="10" r="2" fill="%23ffffff" opacity="0.9"/><circle cx="8" cy="16" r="2" fill="%23ffffff" opacity="0.9"/><circle cx="8" cy="22" r="2" fill="%23ffffff" opacity="0.9"/><circle cx="16" cy="8" r="2.5" fill="%23ffffff"/><circle cx="16" cy="16" r="2.5" fill="%23ffffff"/><circle cx="16" cy="24" r="2.5" fill="%23ffffff"/><circle cx="24" cy="12" r="2" fill="%23ffffff" opacity="0.9"/><circle cx="24" cy="20" r="2" fill="%23ffffff" opacity="0.9"/><line x1="10" y1="10" x2="14" y2="8" stroke="%23ffffff" stroke-width="1" opacity="0.6"/><line x1="10" y1="16" x2="14" y2="16" stroke="%23ffffff" stroke-width="1.5" opacity="0.8"/><line x1="10" y1="22" x2="14" y2="24" stroke="%23ffffff" stroke-width="1" opacity="0.6"/><line x1="18" y1="8" x2="22" y2="12" stroke="%23ffffff" stroke-width="1" opacity="0.6"/><line x1="18" y1="16" x2="22" y2="12" stroke="%23ffffff" stroke-width="1" opacity="0.6"/><line x1="18" y1="16" x2="22" y2="20" stroke="%23ffffff" stroke-width="1" opacity="0.6"/><line x1="18" y1="24" x2="22" y2="20" stroke="%23ffffff" stroke-width="1" opacity="0.6"/><defs><linearGradient id="gradient" x1="0%" y1="0%" x2="100%" y2="100%"><stop offset="0%" style="stop-color:%231D4ED8;stop-opacity:1"/><stop offset="50%" style="stop-color:%237C3AED;stop-opacity:1"/><stop offset="100%" style="stop-color:%2306B6D4;stop-opacity:1"/></linearGradient></defs></svg>